# xmcd
#
# Track frame offsets: 
#        150
#        18307
#        36517
#        54765
#        69152
#        84182
#        101645
#        116135
#        139020
#        156785
#        174420
#        189035
#        209052
#        228027
#        248090
#        277272
#        299055
#        316402
#
# Disc length: 4441 seconds
#
# Revision: 0
# Processed by: cddbd v1.4PL0 Copyright (c) Steve Scherf et al.
# Submitted via: ExactAudioCopy v0.95a2
#
DISCID=fa115712
DTITLE=Plava Trava Zaborava - 16 Nam Je Godina Tek
DYEAR=1999
DGENRE=Country
TTITLE0=Please, Please Baby
TTITLE1=Godine Prolaze feat. Aki
TTITLE2=Trava Zelena feat. Severina
TTITLE3=Cesarica feat. Oliver
TTITLE4=Save The Last Dance For Me feat. V. Kocis Zec
TTITLE5=Always On My Mind feat. Vanna
TTITLE6=Vrijeme Je Da Se Krene feat. Bare
TTITLE7=One Of Us feat. Severina
TTITLE8=Zbog Tebe feat. Stanko
TTITLE9=Zadnja Ruza feat. V. Kocis Zec
TTITLE10=Instrumental feat. Pif
TTITLE11=She Wore Red Dresses feat. Bare
TTITLE12=Wonderful Tonight feat Aki
TTITLE13=Love Hurts feat. Aki i Tina
TTITLE14=Need Your Love So Bad feat. Preksi, Brk, Bero, Hus
TTITLE15=Children Go Where I Send Thee feat. Divas
TTITLE16=Detroit City feat. Oliver
TTITLE17=Take Me Home, Country Roads
EXTD=
EXTT0=
EXTT1=
EXTT2=
EXTT3=
EXTT4=
EXTT5=
EXTT6=
EXTT7=
EXTT8=
EXTT9=
EXTT10=
EXTT11=
EXTT12=
EXTT13=
EXTT14=
EXTT15=
EXTT16=
EXTT17=
PLAYORDER=
